<?xml version="1.0" encoding="utf-8"?>
<!-- Generator: Adobe Illustrator 23.0.6, SVG Export Plug-In . SVG Version: 6.00 Build 0)  -->
<svg version="1.1" baseProfile="tiny" id="Layer_1" xmlns="http://www.w3.org/2000/svg" xmlns:xlink="http://www.w3.org/1999/xlink"
	 x="0px" y="0px" viewBox="0 0 512 512" xml:space="preserve">
<path fill="#262626" d="M407.5,276h-1.6V157.5C405.9,74.8,338.7,7.6,256,7.6S106.1,74.8,106.1,157.5V276h-1.6
	c-24.2,0-43.8,19.7-43.8,43.8c0,24.2,19.7,43.8,43.8,43.8c7.6,0,15-2,21.6-5.7c2.7,15.6,16.6,27.3,32.5,27.3h194.8
	c16,0,29.8-11.7,32.5-27.3c6.6,3.7,14,5.7,21.6,5.7c24.2,0,43.8-19.7,43.8-43.8C451.4,295.7,431.7,276,407.5,276z"/>
<path fill="#EFCA83" d="M387.3,440.2c-1.5-9.3-4.7-18.1-9.3-26.3l0,0c-2.5-4.4-5.4-8.6-8.7-12.4l-2.4-2.8
	c-5.8-6.2-12.4-11.4-19.8-15.5l-53.7-29.8l-0.6-0.6c-1.1-1-1.7-2.4-1.7-3.9l0.3-59.7h-66.3v59.8c0,1.8-0.9,3.4-2.4,4.4l-53.7,29.8
	c-5.9,3.3-11.4,7.3-16.4,12.1l-2.7,2.8c-3.5,3.6-6.6,7.5-9.3,11.7l0,0c-6,9.3-10,19.5-11.8,30.4l0,0c-0.7,6-1.1,12-1.1,18.1v43.3
	c0,1.6,1.3,2.9,2.9,2.9h29.4h27.4h152.2H356h30c1.3,0,2.3-1,2.3-2.3v-43.8C388.4,452.2,388,446.2,387.3,440.2L387.3,440.2z"/>
<path fill="#DDB200" d="M345.6,450.3l42.4-1.1c0-0.1,0-0.2,0-0.3c-0.2-2.9-0.4-5.8-0.8-8.7c-1.5-9.3-4.7-18.1-9.3-26.3
	c-0.6-1.1-1.3-2.3-2-3.4c0,0,0,0,0,0c-0.7-1.1-1.4-2.2-2.2-3.2l0,0c-73.4,33.5-149.8,31.2-228.8-3.8c-0.8,1-1.6,2-2.3,3.1
	c0,0,0,0,0,0c-0.8,1.1-1.5,2.1-2.2,3.2c-6,9.3-10,19.5-11.8,30.4c-0.4,2.9-0.6,5.8-0.8,8.8c0,0.1,0,0.2,0,0.2h42.5
	c-2.1,2.9-9.1,15.7-10.2,46.2l-0.3,9h27.4h152.2H356l-0.3-9C354.6,465,347.8,453.2,345.6,450.3z"/>
<g>
	<path fill="#EDC272" d="M375.2,167.5l-9.9-1.4H342v57.5h23.3l9.9-1.4c13.5-1.9,23.7-13.7,23.7-27.3S388.7,169.5,375.2,167.5z"/>
	<path fill="#EDC272" d="M149.9,166.1l-9.9,1.4c-13.5,1.9-23.7,13.7-23.7,27.3s10.2,25.4,23.7,27.3l9.9,1.4h28v-57.5L149.9,166.1
		L149.9,166.1z"/>
</g>
<path fill="#EFCA83" d="M257,319.9c-60-0.3-108.2-50-108.2-110v-42.1c0-8.9,1.1-17.9,3.3-26.5l1.2-4.9c0.3-1,1.2-1.7,2.2-1.7h100.6
	c0.8,0,1.5-0.4,1.9-1l19.4-29.1c0.9-1.3,2.9-1.3,3.7,0l19.4,29.1c0.4,0.6,1.1,1,1.9,1h61.7c1.2,0,2.2,1,2.2,2.2v74.1
	C366.4,271.3,317.3,320.2,257,319.9z"/>
<path fill="#EABB71" d="M174.5,209.9v-42.1c0-8.9,1.1-17.9,3.3-26.5l1.2-4.9c0.3-1,1.2-1.7,2.2-1.7h-25.6c-1,0-1.9,0.7-2.2,1.7
	l-1.2,4.9c-2.2,8.6-3.3,17.5-3.3,26.5v42.1c0,60,48.1,109.6,108.2,110c4.6,0,9.1-0.2,13.5-0.8C216.2,312.7,174.5,265.8,174.5,209.9z
	"/>
<path fill="#CB7A49" d="M249.1,233.3h13.7c2.2,0,4-1.8,4-4v-6.9c0-6-4.8-10.8-10.8-10.8c-6,0-10.8,4.8-10.8,10.8v6.9
	C245.2,231.5,246.9,233.3,249.1,233.3z"/>
<g>
	<path fill="#DDA64E" d="M208.4,232.2c-2.9-0.6-5.8,1.2-6.4,4.2c-0.2,1-2.7,9.7-16,8.8c-3-0.2-5.6,2.1-5.8,5c-0.2,3,2.1,5.6,5,5.8
		c0.9,0.1,1.7,0.1,2.6,0.1c16.7,0,23.5-11.2,24.7-17.5C213.2,235.7,211.3,232.8,208.4,232.2z"/>
	<path fill="#DDA64E" d="M331.8,250.3c-0.2-3-2.8-5.2-5.8-5c-13.3,0.9-15.8-7.8-16-8.8c-0.6-2.9-3.5-4.7-6.4-4.1
		c-2.9,0.6-4.8,3.5-4.2,6.4c1.3,6.2,8.1,17.5,24.7,17.5c0.8,0,1.7,0,2.6-0.1C329.7,255.8,332,253.2,331.8,250.3z"/>
</g>
<path d="M413.5,268.8V157.5C413.5,70.7,342.8,0,256,0S98.5,70.7,98.5,157.5v111.3c-25.6,3-45.5,24.7-45.5,51.1
	c0,28.4,23.1,51.4,51.4,51.4c5.8,0,11.5-1,16.9-2.8c4.4,10.2,12.9,18.1,23.3,22c-16.8,16.3-26.6,39-26.6,63v50.4
	c0,4.5,3.6,8.1,8.1,8.1h259.8c4.5,0,8.1-3.6,8.1-8.1v-50.4c0-24.1-9.8-46.7-26.6-63c10.3-3.8,18.9-11.8,23.3-22
	c5.4,1.9,11.1,2.8,16.9,2.8c28.4,0,51.4-23.1,51.4-51.4C459,293.5,439.1,271.8,413.5,268.8z M114.7,157.5
	c0-77.9,63.4-141.3,141.3-141.3s141.3,63.4,141.3,141.3v16.1c-5.9-7.5-14.8-12.5-24.9-13.3v-24.5c0-2.6-1.2-5-3.3-6.6
	c-2.1-1.5-4.8-2-7.3-1.2c-2.7,0.9-5.4,1.6-7.9,2.3c-24.7,6.3-51-4-65.4-25.6l-4-6c-1.5-2.3-4-3.6-6.8-3.6s-5.3,1.4-6.8,3.6
	l-19.2,28.9h-36.6c3.7-8.7,13.4-14.2,20.6-15.4c4.4-0.8,7.4-4.9,6.6-9.4c-0.7-4.4-4.9-7.4-9.4-6.6c-15.5,2.6-31.2,14.7-34.8,31.4
	h-33.7c15.6-35,50.8-59.5,91.5-59.5c4.5,0,8.1-3.6,8.1-8.1S260.5,52,256,52c-61.5,0-111.9,47.9-116.1,108.3
	c-10.2,0.7-19.2,5.8-25.2,13.3C114.7,173.6,114.7,157.5,114.7,157.5z M388.6,195.4c0,9.5-7.1,17.4-16.2,18.8v-37.5
	C381.5,178,388.6,185.9,388.6,195.4z M356.1,146.6v65.1c0,55.2-44.9,100.1-100.1,100.1s-100.1-44.9-100.1-100.1v-43.3
	c0-8.4,1-16.6,3-24.4H256c2.7,0,5.3-1.4,6.8-3.6l15-22.5C296.1,142,326.8,153.3,356.1,146.6z M139.6,176.6v37.5
	c-9.2-1.3-16.2-9.2-16.2-18.8S130.5,178,139.6,176.6z M134.5,356c-0.4-2.7-2.1-5-4.5-6.1c-2.4-1.2-5.3-1-7.6,0.3
	c-5.4,3.2-11.6,4.9-17.9,4.9c-19.4,0-35.2-15.8-35.2-35.2s15.8-35.2,35.2-35.2h2.2c4.5,0,8.1-3.6,8.1-8.1v-59.4
	c6.2,7.9,15.7,13,26.4,13.4c6.8,41.6,35.7,75.8,74.2,90.1v26.9l-52.2,29c-0.1,0-0.2,0.1-0.3,0.1h-4.4
	C146.6,376.7,136.2,367.8,134.5,356z M150.6,495.8h-16.4v-37.9h22.1C153.6,465.9,151.2,477.9,150.6,495.8z M377.8,495.8h-16.4
	c-0.6-17.9-3.1-29.9-5.7-37.9h22.1V495.8z M368.5,418.1c4.1,7.2,6.9,15.2,8.3,23.5h-34.5c-3.2,0-6.3,1.8-7.4,4.8
	c-1.3,3.2-0.7,6.6,1.9,8.9c0.9,1.3,7.4,11.2,8.4,40.4H166.8c1-29.2,7.5-39.1,8.4-40.4c2.6-2.3,3.2-5.7,1.9-8.9
	c-1.2-3-4.2-4.8-7.4-4.8h-34.5c1.6-9.7,5.2-19,10.5-27.1c5.4,2.5,23.9,10.6,51.2,16.7c5.1,1.1,9.9-2.7,9.9-7.9v0
	c0-3.8-2.6-7.1-6.3-7.9c-20.9-4.7-36.5-10.7-44-13.9c4.3-4.1,9.2-7.8,14.6-10.8l44.8-24.9c1.2,3.3,4.5,5.7,8.3,5.4
	c4.3-0.3,7.5-4.1,7.5-8.4v-37.5c7.9,1.7,16,2.6,24.4,2.6s16.5-0.9,24.4-2.6v37.5c0,4.3,3.2,8.1,7.5,8.4c3.8,0.3,7.1-2.1,8.3-5.4
	l44.8,24.9c6.7,3.7,12.6,8.4,17.7,13.9c-44.6,17.4-86.9,19.5-119.6,16.7c-4.7-0.4-8.8,3.3-8.8,8.1l0,0c0,4.2,3.2,7.7,7.4,8.1
	c7.9,0.7,16.4,1.1,25.3,1.1C294,438.6,330.5,433.6,368.5,418.1z M407.5,355c-6.3,0-12.5-1.7-17.9-4.9c-2.3-1.4-5.2-1.5-7.6-0.3
	c-2.4,1.2-4.1,3.5-4.5,6.1c-1.8,11.8-12.1,20.7-24.1,20.7H349c-0.1,0-0.2-0.1-0.3-0.1l-52.2-29v-26.9c38.5-14.4,67.4-48.6,74.2-90.1
	c10.7-0.4,20.2-5.5,26.4-13.4v59.4c0,4.5,3.6,8.1,8.1,8.1h2.2c19.4,0,35.2,15.8,35.2,35.2S426.9,355,407.5,355z"/>
<circle cx="201.9" cy="200.8" r="10.8"/>
<circle cx="310.1" cy="200.8" r="10.8"/>
<path d="M191.1,179.1h21.6c6,0,10.8-4.8,10.8-10.8s-4.8-10.8-10.8-10.8h-21.6c-6,0-10.8,4.8-10.8,10.8S185.1,179.1,191.1,179.1z"/>
<path d="M299.3,179.1h21.6c6,0,10.8-4.8,10.8-10.8s-4.8-10.8-10.8-10.8h-21.6c-6,0-10.8,4.8-10.8,10.8S293.3,179.1,299.3,179.1z"/>
<path d="M297.6,258.7c-3.9-2.2-8.8-0.9-11.1,3c-6.3,10.9-18,17.6-30.5,17.6s-24.2-6.7-30.5-17.6c-2.2-3.9-7.2-5.2-11.1-3
	c-3.9,2.2-5.2,7.2-3,11.1c9.2,15.9,26.2,25.7,44.5,25.7s35.4-9.8,44.5-25.7C302.8,265.9,301.5,261,297.6,258.7z"/>
<path fill="#C6C5CB" d="M164.5,127.7h33.7c0,0,3.5-22.9,34.8-31.4s55-23.6,66.3-29.5c11.3-5.9-10.5,0.5-43.3,1.4
	S177,90.2,164.5,127.7z"/>
</svg>
