<?xml version="1.0" encoding="utf-8"?>
<!-- Generator: Adobe Illustrator 23.1.0, SVG Export Plug-In . SVG Version: 6.00 Build 0)  -->
<svg version="1.2" baseProfile="tiny" id="Calque_1"
	 xmlns="http://www.w3.org/2000/svg" xmlns:xlink="http://www.w3.org/1999/xlink" x="0px" y="0px" width="32px" height="32px"
	 viewBox="0 0 32 32" xml:space="preserve">
<g>
	<path fill="#1B5E20" d="M27.8,7.1c1,1.6,1.4,3.3,1,5c-0.6,2.5-2.9,4.9-6.4,6.7c-2.9,1.5-6.2,2.4-9.2,2.6c-1.6,4-2.9,7.2-3.2,7.5
		c-0.7,0.8-3.6,0.3-3.6-0.3l3.1-7.5c-1.8-0.4-3.1-1.3-3.7-2.6l-0.6-1.1l1.1,0.5c0.8,0.4,2.1,0.6,3.6,0.6c0.2,0,0.4,0,0.6,0L16,4.9
		c-0.4,0-0.7,0-1.1,0c-4.7,0-7.5,1.5-8.5,2.7C6,8.1,5.9,8.6,6,9.1l0.3,1.2l-1-0.6C4.1,8.8,3.7,7.8,4,6.6c0.4-1.2,1.6-2.4,3.4-3.2
		C8.9,2.8,11.3,2,14.8,2c1.3,0,2.7,0.1,4.1,0.3c2.1,0.3,3.9,0.9,5.4,1.8c1.5,0.8,2.6,1.8,3.4,3H27.8z M24.9,11.8
		C25.2,10.3,25,9,24.3,8c-0.8-1.2-2.4-2-4.7-2.5c-1,2.5-3,7.6-5,12.5c1.6-0.3,3.2-0.8,4.7-1.4C22.5,15.2,24.5,13.5,24.9,11.8
		L24.9,11.8z"/>
</g>
</svg>
